<svg xmlns="http://www.w3.org/2000/svg" width="256" height="256" viewBox="0 0 256 256">
  <rect width="256" height="256" rx="56" ry="56" fill="#1e293b"/>
  <g transform="translate(46, 46) scale(6.833333333333333)">
    <path d="M 16.4 0.4c 3.38 0 5.076 0 6.2 0.96q 0.24 0.2 0.44 0.44C 24 2.928 24 4.624 24 8v 8c 0 3.384 0 5.076 -0.96 6.2a 4 4 0 0 1 -0.44 0.44c -1.124 0.96 -2.816 0.96 -6.2 0.96H 10.64c -1.352 0 -2.028 0 -2.48 -0.384a 1.6 1.6 0 0 1 -0.176 -0.176C 7.6 22.588 7.6 21.912 7.6 20.56V 3.44c 0 -1.352 0 -2.028 0.384 -2.48a 1.6 1.6 0 0 1 0.18 -0.176c 0.448 -0.384 1.124 -0.384 2.48 -0.384zm -12 19.96c 0 1.488 0 2.236 -0.724 2.708a 2.4 2.4 0 0 1 -0.428 0.2c -0.832 0.24 -1.168 -0.048 -1.844 -0.624a 4 4 0 0 1 -0.448 -0.448C 0 21.08 0 19.384 0 16V 8c 0 -3.38 0 -5.076 0.96 -6.2q 0.2 -0.24 0.44 -0.44c 0.68 -0.58 1.02 -0.868 1.848 -0.624a 2.4 2.4 0 0 1 0.424 0.192c 0.728 0.476 0.728 1.22 0.728 2.712zM 12.2 10a 1.8 1.8 0 1 0 0 3.6h 4.4a 1.8 1.8 0 0 0 0 -3.6zm 0 -6.4a 1.8 1.8 0 0 0 0 3.6h 7.6a 1.8 1.8 0 0 0 0 -3.6z" fill="#ffffff"/>
  </g>
</svg>